<svg width="25" height="25" viewBox="0 0 25 25" fill="none" xmlns="http://www.w3.org/2000/svg">
<path d="M20.1681 7.12109H4.03365C2.9198 7.12109 2.01685 8.01652 2.01685 9.12109V19.1211C2.01685 20.2257 2.9198 21.1211 4.03365 21.1211H20.1681C21.282 21.1211 22.1849 20.2257 22.1849 19.1211V9.12109C22.1849 8.01652 21.282 7.12109 20.1681 7.12109Z" stroke="#878787" stroke-width="1.5" stroke-linecap="round" stroke-linejoin="round"/>
<path d="M16.1345 21.1211V5.12109C16.1345 4.59066 15.922 4.08195 15.5438 3.70688C15.1656 3.33181 14.6526 3.12109 14.1177 3.12109H10.0841C9.54918 3.12109 9.03619 3.33181 8.65797 3.70688C8.27975 4.08195 8.06726 4.59066 8.06726 5.12109V21.1211" stroke="#878787" stroke-width="1.5" stroke-linecap="round" stroke-linejoin="round"/>
</svg>
