<svg width="20" height="19" viewBox="0 0 20 19" fill="none" xmlns="http://www.w3.org/2000/svg">
<path d="M9.05489 16.4754L9.05381 16.4744C6.46371 14.1257 4.37476 12.2297 2.92429 10.4564C1.48243 8.6936 0.75 7.14364 0.75 5.5C0.75 2.83421 2.83421 0.75 5.5 0.75C7.01291 0.75 8.47668 1.45795 9.42899 2.57625L10 3.2468L10.571 2.57625C11.5233 1.45795 12.9871 0.75 14.5 0.75C17.1658 0.75 19.25 2.83421 19.25 5.5C19.25 7.14365 18.5176 8.69365 17.0756 10.4579C15.6251 12.2324 13.5363 14.1307 10.9464 16.4842C10.9461 16.4845 10.9459 16.4847 10.9456 16.4849L10.0019 17.3375L9.05489 16.4754Z" stroke="#878787" stroke-width="1.5"/>
</svg>
