<svg width="40" height="40" viewBox="0 0 40 40" fill="none" xmlns="http://www.w3.org/2000/svg">
<rect x="0.5" y="0.5" width="39" height="38.7702" rx="9.5" fill="white" fill-opacity="0.71" stroke="#F1BC43"/>
<path d="M30.2118 20.104C30.2118 19.2934 30.1423 18.7018 29.9918 18.0884H20.2081V21.7472H25.9509C25.8352 22.6565 25.21 24.0259 23.8205 24.946L23.8011 25.0685L26.8945 27.3359L27.1088 27.3561C29.0771 25.6362 30.2118 23.1056 30.2118 20.104Z" fill="#3A82F8"/>
<path d="M20.2085 29.7445C23.022 29.7445 25.3839 28.8681 27.1092 27.3564L23.8209 24.9463C22.941 25.5269 21.76 25.9322 20.2085 25.9322C17.4529 25.9322 15.1141 24.2124 14.2804 21.8352L14.1582 21.845L10.9416 24.2003L10.8995 24.3109C12.6131 27.5316 16.1329 29.7445 20.2085 29.7445Z" fill="#34A853"/>
<path d="M14.2805 21.835C14.0606 21.2215 13.9332 20.5642 13.9332 19.8851C13.9332 19.2058 14.0606 18.5486 14.269 17.9351L14.2631 17.8045L11.0063 15.4114L10.8997 15.4593C10.1935 16.7958 9.78821 18.2966 9.78821 19.8851C9.78821 21.4735 10.1935 22.9742 10.8997 24.3107L14.2805 21.835Z" fill="#FBBC05"/>
<path d="M20.2085 13.8381C22.1652 13.8381 23.4851 14.6378 24.2377 15.306L27.1786 12.5893C25.3725 11.0008 23.022 10.0259 20.2085 10.0259C16.1329 10.0259 12.6131 12.2387 10.8995 15.4594L14.2688 17.9351C15.1141 15.558 17.4529 13.8381 20.2085 13.8381Z" fill="#EB4335"/>
</svg>
