<svg width="26" height="25" viewBox="0 0 26 25" fill="none" xmlns="http://www.w3.org/2000/svg">
<path d="M20.1513 3.12109H6.03365C4.9198 3.12109 4.01685 4.01652 4.01685 5.12109V19.1211C4.01685 20.2257 4.9198 21.1211 6.03365 21.1211H20.1513C21.2652 21.1211 22.1681 20.2257 22.1681 19.1211V5.12109C22.1681 4.01652 21.2652 3.12109 20.1513 3.12109Z" stroke="#878787" stroke-width="1.5" stroke-linecap="round" stroke-linejoin="round"/>
<path d="M9.56302 10.1211C10.3984 10.1211 11.0756 9.44952 11.0756 8.62109C11.0756 7.79267 10.3984 7.12109 9.56302 7.12109C8.72763 7.12109 8.05042 7.79267 8.05042 8.62109C8.05042 9.44952 8.72763 10.1211 9.56302 10.1211Z" stroke="#878787" stroke-width="1.5" stroke-linecap="round" stroke-linejoin="round"/>
<path d="M22.168 15.1211L17.126 10.1211L6.03357 21.1211" stroke="#878787" stroke-width="1.5" stroke-linecap="round" stroke-linejoin="round"/>
</svg>
