<svg width="25" height="25" viewBox="0 0 25 25" fill="none" xmlns="http://www.w3.org/2000/svg">
<g clip-path="url(#clip0_6_2589)">
<path d="M9.07566 22.1211C9.63259 22.1211 10.0841 21.6734 10.0841 21.1211C10.0841 20.5688 9.63259 20.1211 9.07566 20.1211C8.51874 20.1211 8.06726 20.5688 8.06726 21.1211C8.06726 21.6734 8.51874 22.1211 9.07566 22.1211Z" stroke="#878787" stroke-width="1.5" stroke-linecap="round" stroke-linejoin="round"/>
<path d="M20.1681 22.1211C20.725 22.1211 21.1765 21.6734 21.1765 21.1211C21.1765 20.5688 20.725 20.1211 20.1681 20.1211C19.6111 20.1211 19.1597 20.5688 19.1597 21.1211C19.1597 21.6734 19.6111 22.1211 20.1681 22.1211Z" stroke="#878787" stroke-width="1.5" stroke-linecap="round" stroke-linejoin="round"/>
<path d="M1.00842 1.12109H5.04204L7.74456 14.5111C7.83677 14.9715 8.08934 15.3851 8.45805 15.6794C8.82676 15.9737 9.28812 16.1301 9.76136 16.1211H19.563C20.0363 16.1301 20.4976 15.9737 20.8664 15.6794C21.2351 15.3851 21.4876 14.9715 21.5798 14.5111L23.1933 6.12109H6.05044" stroke="#878787" stroke-width="1.5" stroke-linecap="round" stroke-linejoin="round"/>
</g>
<defs>
<clipPath id="clip0_6_2589">
<rect width="24.2017" height="24" fill="white" transform="translate(0 0.121094)"/>
</clipPath>
</defs>
</svg>
